<?xml version="1.0" standalone="no"?><!DOCTYPE svg PUBLIC "-//W3C//DTD SVG 1.1//EN" "http://www.w3.org/Graphics/SVG/1.1/DTD/svg11.dtd"><svg t="1698917171741" class="icon" viewBox="0 0 1024 1024" version="1.1" xmlns="http://www.w3.org/2000/svg" p-id="8126" xmlns:xlink="http://www.w3.org/1999/xlink" width="128" height="128"><path d="M974.46085 433.53915a40.662192 40.662192 0 0 0-40.662192 40.662192 256 256 0 0 1-256 256H284.348993L418.935123 595.615213a40.662192 40.662192 0 0 0-57.270693-57.270694l-202.165549 201.592841a40.662192 40.662192 0 0 0-12.026845 28.635347 41.234899 41.234899 0 0 0 12.026845 28.635347l207.892618 207.31991a40.662192 40.662192 0 0 0 57.270693-57.270693L287.212528 811.525727h389.440716a337.324385 337.324385 0 0 0 337.324385-337.324385 40.662192 40.662192 0 0 0-39.516779-40.662192zM344.483221 293.798658h395.167786l-134.58613 134.586129a40.662192 40.662192 0 0 0 57.270693 57.270694L864.501119 286.353468a40.662192 40.662192 0 0 0 12.026845-28.635347 41.234899 41.234899 0 0 0-12.026845-28.635347L656.608501 18.899329a40.662192 40.662192 0 0 0-57.270693 57.270693l135.731543 135.731544H344.483221A337.324385 337.324385 0 0 0 8.304251 549.798658a40.662192 40.662192 0 0 0 81.324384 0A256 256 0 0 1 344.483221 293.798658z" fill="#ffffff" p-id="8127"></path></svg>